<svg width="32" height="68" viewBox="0 0 32 68" fill="none" xmlns="http://www.w3.org/2000/svg">
<path d="M30.4844 13.6793C27.2804 13.0845 24.1678 13.0387 21.33 14.5487C21.33 14.5029 21.33 14.5029 21.3757 14.4571C21.8335 13.8166 22.2912 13.2675 22.8404 12.6727C22.8404 12.6727 22.8862 12.6727 22.8862 12.6269C24.7171 11.4831 26.3192 9.88164 26.96 7.7769C27.6923 5.26037 26.1818 2.83535 26.6396 0.318821C26.6853 0.0442908 26.3192 -0.138727 26.1818 0.135804C25.5868 1.27968 24.9918 2.46931 24.3509 3.61319C23.8017 4.57404 23.1151 5.48915 22.6574 6.49576C21.8792 8.32596 21.8335 10.4307 22.4743 12.3067C22.1996 12.5812 21.9708 12.8557 21.6961 13.176C21.8335 12.1236 21.5588 11.0255 21.1011 10.0647C19.911 7.59388 17.4851 5.94669 16.0661 3.61319C15.9288 3.38441 15.5626 3.52168 15.6084 3.79621C16.295 6.54152 15.6542 9.37833 16.3408 12.1236C16.7985 13.9081 17.897 15.601 19.6821 16.1958V16.2416V16.2873C18.8125 17.9345 18.1259 19.6732 17.4393 21.4119C16.7985 23.0591 16.1577 24.7063 15.5626 26.3992C15.288 24.9351 14.5099 23.4709 13.7317 22.2813C12.8621 20.9544 11.8093 19.8562 10.4819 18.9411C8.92563 17.8888 7.32359 16.9737 5.85887 15.784C5.67578 15.6468 5.40115 15.784 5.44692 16.0128C5.72156 17.7973 6.1335 19.5817 6.54546 21.3204C6.95741 22.9218 7.27782 24.569 8.01018 26.0332C8.65099 27.3143 9.52066 28.504 10.665 29.3733C11.7177 30.1969 12.9536 30.5172 14.2352 30.7002C14.0521 31.5238 13.869 32.3474 13.7317 33.171C13.5029 34.4521 13.3656 35.6875 13.274 36.9686C13.274 37.0144 13.274 37.0144 13.274 37.0602C12.9994 40.8578 13.1825 44.7013 13.8233 48.4532C12.9078 47.0805 11.5804 46.0739 9.97839 45.2961C8.65099 44.6097 7.09473 44.2895 5.63001 43.8777C3.89066 43.3744 2.10553 42.871 0.320406 42.4592C0.137316 42.4135 0 42.5508 0 42.7338C0.457724 44.8385 0.732359 47.1263 1.60204 49.0937C2.28862 50.7409 3.75334 52.3423 5.08074 53.4862C7.73554 55.8197 12.0839 56.0485 15.3795 55.3164C15.4253 55.4537 15.4711 55.591 15.5169 55.7282C16.1577 57.6957 16.8443 59.6174 17.6682 61.5391C17.8055 61.8137 17.9428 62.1339 18.0343 62.4085C17.1189 61.5849 15.9746 61.0358 14.5556 61.0816C11.3973 61.2188 8.23904 63.3693 5.08074 62.2712C4.80611 62.1797 4.71456 62.5 4.85188 62.683C6.13351 64.2387 7.41513 65.8401 9.15449 66.8925C10.3903 67.6246 11.672 67.8991 13.1367 67.9906C15.6999 68.0821 18.4463 67.533 19.7279 65.1538C20.0483 65.5198 20.4603 65.8859 20.8722 66.1604C21.1469 66.3434 21.3757 65.9316 21.1011 65.7486C20.8265 65.5656 20.5518 65.3368 20.323 65.108C23.2066 65.2453 26.0445 64.2387 28.15 62.2712C29.2028 61.2646 30.164 60.0292 30.7591 58.6566C31.3999 57.1009 31.6288 55.3164 31.9949 53.6692C32.0407 53.3947 31.7661 53.3032 31.583 53.4405C29.9809 54.6759 28.4705 55.591 26.5022 56.0943C24.946 56.4603 23.4355 57.0094 22.1539 57.9702C20.2314 59.3886 19.0413 61.8137 19.5448 64.1472C18.9498 63.2778 18.5378 62.317 18.1259 61.3561C17.3935 59.6632 16.7527 57.9702 16.1577 56.1858C16.0204 55.774 15.883 55.3622 15.7915 54.9504C19.4075 55.2707 23.1151 53.2575 25.6326 50.7867C26.8684 49.5513 27.7839 48.1329 28.3331 46.4399C28.6078 45.5248 28.7451 44.6097 28.7909 43.6946C28.8366 42.505 28.6993 41.3611 28.8366 40.2173C28.8366 40.0342 28.6078 39.9427 28.4705 39.9885C25.1748 41.5441 21.1011 42.0932 18.6752 45.0673C17.5308 46.4857 16.7069 48.2244 15.9746 49.8716C15.5626 50.7409 15.288 51.5645 15.1507 52.4339C15.1507 52.4339 15.1507 52.4339 15.1507 52.3881C14.5556 50.0546 14.1437 47.6296 13.9148 45.2503C13.6402 42.688 13.5944 40.1257 13.7775 37.5635C15.0134 38.4328 16.9358 38.1583 18.309 37.8837C20.4145 37.4262 22.4285 36.7399 24.0305 35.23C25.4495 33.9031 26.7769 32.3474 27.555 30.5172C28.2416 28.9158 28.6535 27.1313 29.7063 25.7129C29.7521 25.6671 29.7521 25.6671 29.7979 25.6214C29.8894 25.5299 29.9809 25.3926 30.0725 25.3011C30.2098 25.1181 30.0725 24.7978 29.8436 24.8893C28.8824 25.2096 27.9212 25.4841 26.9142 25.6671C25.8157 25.8502 24.7171 25.7587 23.6644 25.8959C21.925 26.1247 20.1399 26.5822 18.5836 27.3143C17.2104 27.9549 16.0204 28.87 15.1964 30.1054C15.1049 30.2426 15.0134 30.4257 14.9218 30.5629C15.0591 30.0596 15.1964 29.5106 15.3338 29.0073C15.4711 28.687 15.5626 28.3209 15.6542 28.0007C16.1577 26.3992 16.7069 24.8435 17.3478 23.2421C18.0801 21.4119 18.7667 19.4902 19.6364 17.66C20.5518 19.4445 23.3897 19.1699 24.946 18.5293C26.0445 18.0718 27.0057 17.4312 27.8296 16.5619C28.6993 15.6468 29.4774 14.6402 30.7133 14.0911C30.7591 14.0453 30.7133 13.7251 30.4844 13.6793Z" fill="black"/>
</svg>
